<svg width="101" height="55" viewBox="0 0 101 55" fill="none" xmlns="http://www.w3.org/2000/svg">
<path d="M24.0067 54.3173C13.6067 55.9173 1.00673 16.3173 1.00673 16.3173C0.840065 10.9839 3.70673 2.71725 16.5067 12.3173C36.5067 29.1173 60.8401 19.3173 70.5067 12.3173C75.1734 6.98392 85.1067 -2.48275 87.5067 2.31725C89.9067 7.11725 96.8401 5.65059 100.007 4.31725V11.3173C100.007 13.7173 96.6734 14.6506 95.0067 14.8173C91.5067 47.3173 78.5067 50.3173 72.0067 52.3173C66.8067 53.9173 53.1734 47.6506 47.0067 44.3173C43.6734 46.9839 34.4067 52.7173 24.0067 54.3173Z" fill="white" stroke="white"/>
<path d="M54.5068 35.8173C56.1735 29.1506 63.5999 16.1282 79.0068 20.8173C88.0068 23.5564 64.0068 41.8173 54.5068 35.8173Z" fill="black" stroke="white"/>
<path d="M13.507 26.8172C16.3403 33.4839 25.4848 45.6318 37.507 37.8172C47.5068 31.3172 6.04451 16.8172 13.507 26.8172Z" fill="black" stroke="white"/>
</svg>
